<svg xmlns="http://www.w3.org/2000/svg" viewBox="0 0 977.48 1000">
  <g id="File">
    <g>
      <path d="M781.85,1000H768.5l-5.16-2.68c-19.45-10.12-38.68-20.64-57.91-31.17-13.83-7.58-27.68-15.15-41.59-22.57-84.85,32.86-180.36,41.17-270.3,23.33A487.32,487.32,0,0,1,5.3,564C-.25,529.33-1.86,491.78.51,452.43c2.51-27.77,5.6-48.52,10.09-68a445.54,445.54,0,0,1,24.82-80.1,441.92,441.92,0,0,1,36.93-72.61C91,201,114.82,170.86,143,142.44c15.14-14.74,27-25.29,38.92-34.5C253.8,49.46,344.81,12,437.74,2.72l3.36-.31c5.7-.54,11.42-1,17.07-2L462.32,0l56.07.24c7,1,14.11,1.82,21.18,2.63,15.68,1.82,31.9,3.69,48.25,7.54a429.23,429.23,0,0,1,68.11,19.38c21.59,7.39,44.44,17.8,71.21,32.49A491.07,491.07,0,0,1,868.22,181.09a491.73,491.73,0,0,1,57,88.35,455.74,455.74,0,0,1,31.62,80.21,457.7,457.7,0,0,1,17.07,84.17A482.63,482.63,0,0,1,971.22,562a466.52,466.52,0,0,1-33.56,117.85c-28,66.13-71.79,126.49-127,175,0,5.27.1,10.53.16,15.81.34,32.52.69,66.14-1,99.44l-.23,4.75-2.05,4.29a90.5,90.5,0,0,1-5,8.76l-7,11.18ZM666.39,891.1l9.9,5.2c17.44,9.15,34.72,18.61,52,28.08,11.59,6.34,23.2,12.7,34.84,19,.55-24.06.29-48.39.05-72.12-.09-9-.19-18-.24-27L762.88,833l8.56-7.19c53.53-44.94,95.87-101.9,122.45-164.7A420.54,420.54,0,0,0,924.13,555l0-.25A435.82,435.82,0,0,0,926.57,439a412.2,412.2,0,0,0-15.4-75.85,410.25,410.25,0,0,0-28.5-72.33A441.95,441.95,0,0,0,704,103.91c-24.12-13.23-44.6-22.59-64.24-29.33a388.73,388.73,0,0,0-62-17.64c-14.49-3.39-28.66-5-43.66-6.76-6.91-.8-13.83-1.61-20.73-2.56h-49c-6.48,1.05-12.73,1.63-18.79,2.2l-3.16.29c-83.66,8.34-165.68,42.12-230.86,95.11-10.83,8.42-21.49,17.88-35,31-25.24,25.47-46.76,52.66-63.66,80.52A397.1,397.1,0,0,0,79.5,322.34,400.24,400.24,0,0,0,57.1,394.7C53,412.42,50.24,431.2,48,456c-2.11,35.17-.67,69.22,4.34,100.52A440.86,440.86,0,0,0,402.69,920.18c84.63,16.76,174.58,8,253.39-24.79Z" transform="translate(0.55)"/>
      <path d="M430.51,806c-64.32,0-128.64-20.89-180.14-60.46l-3-2.5c-19.35-16.3-41.29-34.76-55.39-60l-36.62-65.56L223.07,650c10.88,5,81.14,24.5,128.92-10.23a108.76,108.76,0,0,0,37.89-62.5c4.3-20.72,2.32-44.37-6-72.55-2.73-10.15-5.72-19.63-8.71-29.1-5.1-16.22-10.38-33-13.83-50.64q-7.39-43.9.49-84a219.06,219.06,0,0,1,47.24-97.34c51.76-63.77,169-70.72,174-71l49.28-2.63-28.61,40.21c-17,24-32.24,58.64-27.69,71.8,7.24,21.84,20.81,41.6,33.14,58.09,6.42,9.1,12.7,17.44,19,25.78,10.23,13.6,20.81,27.65,30.35,42.68,15.5,26.21,26.5,50.53,34,75,10.6,37.8,13.68,73.74,9.35,107.4a224.33,224.33,0,0,1-26.19,80.19c-33,56.07-90.12,100-157.07,121.17A287.07,287.07,0,0,1,430.51,806ZM279.14,707.59l1.08.91c62.29,47.83,148.4,62.81,223.94,38.49,56-17.71,103.39-53.9,130.14-99.33A176.38,176.38,0,0,0,654.65,585c3.53-27.39.9-57-7.79-88-6.25-20.25-15.78-41.23-29-63.54-8.11-12.77-17.67-25.47-27.78-38.91-6.6-8.75-13.18-17.51-19.48-26.46-14.21-19-30.42-42.75-39.71-70.79-7.55-21.86-.71-48.24,8.92-70.37-33.54,7.41-73.57,21.67-93.9,46.88l-.42.5a171.07,171.07,0,0,0-37,76.09c-4.05,20.74-4.18,43-.31,66,2.82,14.41,7.47,29.2,12.4,44.87,3.19,10.11,6.36,20.23,9.12,30.47,10.44,35.33,12.72,66.56,6.82,94.93-6.89,35-27.21,68.19-55.71,90.92C348.52,701.11,311.52,708.08,279.14,707.59Z" transform="translate(0.55)"/>
    </g>
  </g>
</svg>
